<svg xmlns="http://www.w3.org/2000/svg" viewBox="0 0 512 512" role="img" aria-label="社内ポータル">
  <defs>
    <linearGradient id="portal-bg" x1="72" y1="40" x2="440" y2="472" gradientUnits="userSpaceOnUse">
      <stop offset="0" stop-color="#0f7dd8"/>
      <stop offset="0.52" stop-color="#0f5f9f"/>
      <stop offset="1" stop-color="#12324f"/>
    </linearGradient>
    <linearGradient id="portal-accent" x1="306" y1="338" x2="424" y2="456" gradientUnits="userSpaceOnUse">
      <stop offset="0" stop-color="#39d9c8"/>
      <stop offset="1" stop-color="#1ba6ff"/>
    </linearGradient>
    <filter id="soft-shadow" x="-20%" y="-20%" width="140%" height="150%">
      <feDropShadow dx="0" dy="18" stdDeviation="18" flood-color="#07111f" flood-opacity="0.28"/>
    </filter>
  </defs>

  <rect width="512" height="512" rx="112" fill="url(#portal-bg)"/>
  <path d="M86 414 424 76c32 22 58 58 70 100L176 494c-36-13-68-41-90-80Z" fill="#ffffff" opacity="0.08"/>

  <g filter="url(#soft-shadow)">
    <rect x="92" y="102" width="328" height="308" rx="70" fill="#f8fbff"/>
    <rect x="128" y="136" width="256" height="42" rx="21" fill="#dcecff"/>
    <circle cx="158" cy="157" r="9" fill="#0f7dd8"/>
    <circle cx="187" cy="157" r="9" fill="#51c7f5"/>
    <circle cx="216" cy="157" r="9" fill="#39d9c8"/>

    <path d="M144 348V260l54-38 36 24 62-44 72 54v92H144Z" fill="#10243a"/>
    <path d="M144 260h224v88H144z" fill="#143653"/>
    <path d="M178 294h32v54h-32zM238 294h32v54h-32zM298 294h32v54h-32z" fill="#f8fbff" opacity="0.92"/>
    <path d="M312 208h42v46l-42-31v-15Z" fill="#10243a"/>
  </g>

  <circle cx="368" cy="366" r="66" fill="url(#portal-accent)"/>
  <path d="m333 365 24 24 47-56" fill="none" stroke="#ffffff" stroke-width="22" stroke-linecap="round" stroke-linejoin="round"/>
</svg>
